<?xml version="1.0" standalone="no"?>
<!DOCTYPE svg PUBLIC "-//W3C//DTD SVG 20010904//EN"
 "http://www.w3.org/TR/2001/REC-SVG-20010904/DTD/svg10.dtd">
<svg version="1.0" xmlns="http://www.w3.org/2000/svg"
 width="309.000000pt" height="59.000000pt" viewBox="0 0 309.000000 59.000000"
 preserveAspectRatio="xMidYMid meet">

<g transform="translate(0.000000,59.000000) scale(0.100000,-0.100000)"
fill="#000000" stroke="none">
<path d="M0 575 c0 -12 4 -13 19 -5 36 19 70 -14 55 -54 -7 -19 -60 -22 -67
-3 -3 6 -6 -7 -6 -31 -1 -40 0 -42 19 -32 14 8 26 8 40 0 14 -7 26 -8 39 0 25
13 48 4 56 -21 12 -37 -35 -65 -62 -38 -8 8 -17 7 -32 -3 -17 -10 -25 -10 -41
0 -19 11 -20 10 -20 -28 0 -38 1 -39 20 -28 26 17 55 0 55 -32 0 -32 -29 -49
-55 -32 -19 11 -20 10 -20 -28 0 -38 1 -39 20 -28 26 17 55 0 55 -32 0 -32
-29 -49 -55 -32 -19 11 -20 10 -20 -28 0 -38 1 -39 20 -28 26 17 55 0 55 -32
0 -32 -29 -49 -55 -32 -18 11 -20 10 -20 -8 0 -20 4 -20 1545 -20 l1545 0 0
80 c0 78 -1 80 -20 68 -26 -17 -55 0 -55 32 0 32 29 49 55 32 19 -11 20 -10
20 28 0 38 -1 39 -20 28 -16 -10 -24 -10 -40 0 -16 10 -24 10 -40 0 -16 -10
-24 -10 -40 0 -16 10 -24 10 -40 0 -25 -16 -54 -1 -58 30 -4 29 40 51 63 32
12 -10 18 -10 30 0 12 10 21 10 41 1 20 -9 30 -9 40 0 11 9 21 9 39 1 l25 -12
-1 103 c0 56 -3 96 -6 90 -6 -17 -60 -17 -67 0 -5 10 -7 10 -12 0 -7 -17 -61
-17 -68 0 -5 9 -7 10 -12 0 -7 -16 -46 -17 -61 -2 -8 8 -13 8 -17 0 -9 -15
-49 -14 -64 1 -32 32 8 80 48 58 14 -8 26 -8 40 0 14 8 26 8 40 0 14 -8 26 -8
40 0 14 8 26 8 40 0 14 -7 26 -8 39 0 25 13 27 13 45 -6 15 -14 16 -14 16 5
l0 21 -1545 0 c-1382 0 -1545 -2 -1545 -15z m386 -16 c24 -27 8 -54 -32 -54
-23 0 -30 5 -32 24 -3 15 3 30 14 38 24 17 28 17 50 -8z m230 11 c8 -8 19 -7
37 1 23 10 30 9 47 -6 11 -10 20 -13 20 -8 0 17 30 24 51 12 29 -15 22 -63 -9
-67 -13 -2 -29 2 -37 8 -9 7 -15 8 -20 0 -8 -13 -52 -13 -61 1 -4 8 -9 8 -17
0 -35 -35 -95 13 -61 50 19 21 35 24 50 9z m414 -3 c8 0 22 3 31 7 10 4 22 1
30 -7 12 -12 17 -12 35 0 21 14 54 9 54 -8 0 -5 12 -2 26 7 23 16 27 16 41 1
14 -14 18 -14 40 0 23 15 26 15 46 -6 17 -17 19 -25 11 -39 -13 -21 -50 -28
-69 -12 -9 7 -15 8 -20 0 -8 -14 -48 -13 -63 2 -9 9 -12 9 -12 0 0 -15 -56
-16 -66 -1 -4 8 -9 8 -17 0 -15 -15 -54 -14 -61 2 -5 10 -7 10 -12 0 -3 -7
-19 -13 -35 -13 -23 0 -30 5 -35 27 -8 30 20 58 46 47 8 -4 22 -7 30 -7z m464
-9 c20 -28 4 -58 -29 -58 -33 0 -49 30 -29 58 8 12 21 22 29 22 8 0 21 -10 29
-22z m310 9 c26 -19 18 -61 -12 -65 -44 -7 -67 32 -36 62 19 19 25 20 48 3z
m176 0 c8 0 22 3 31 7 10 4 22 1 30 -7 12 -13 16 -13 31 0 32 28 76 -6 63 -48
-7 -21 -59 -27 -71 -8 -4 8 -9 8 -17 0 -15 -15 -54 -14 -61 2 -5 10 -7 10 -12
0 -3 -7 -19 -13 -35 -13 -23 0 -30 5 -35 27 -8 30 20 58 46 47 8 -4 22 -7 30
-7z m304 -3 c31 -30 8 -69 -36 -62 -30 4 -38 46 -12 65 23 17 29 16 48 -3z
m316 2 c6 -8 10 -25 8 -38 -2 -18 -9 -23 -32 -23 -40 0 -56 27 -32 54 22 25
39 26 56 7z m-2216 -125 c25 -28 5 -63 -32 -59 -30 3 -42 39 -22 64 17 19 34
18 54 -5z m156 5 c6 -8 10 -25 8 -38 -2 -18 -9 -23 -33 -23 -26 0 -30 4 -33
29 -5 41 32 62 58 32z m315 1 c26 -20 13 -67 -18 -67 -43 0 -60 35 -31 64 19
19 25 20 49 3z m316 3 c41 -22 11 -78 -36 -66 -27 7 -35 42 -13 64 15 15 24
15 49 2z m319 -4 c20 -25 8 -61 -22 -64 -37 -4 -57 31 -32 59 20 23 37 24 54
5z m318 2 c22 -22 14 -57 -13 -64 -45 -11 -71 29 -39 60 19 19 36 20 52 4z
m246 -10 c22 -35 -27 -74 -59 -48 -20 17 -19 47 3 59 23 14 42 10 56 -11z
m229 7 c13 -13 16 -13 27 0 17 20 33 19 54 -4 14 -15 15 -24 6 -40 -11 -22
-54 -29 -65 -11 -5 8 -11 7 -20 0 -23 -19 -60 -8 -63 18 -6 43 32 67 61 37z
m317 1 c6 -8 10 -25 8 -38 -2 -18 -9 -23 -32 -23 -40 0 -56 27 -32 54 22 25
39 26 56 7z m160 0 c19 -23 8 -61 -18 -64 -45 -7 -72 46 -34 67 24 14 38 13
52 -3z m-2536 -122 c20 -19 20 -38 1 -54 -23 -19 -65 -4 -65 23 0 43 35 60 64
31z m160 0 c19 -19 20 -25 3 -48 -19 -26 -61 -18 -65 12 -7 44 32 67 62 36z
m154 7 c8 -5 12 -21 10 -37 -4 -35 -44 -47 -65 -18 -17 23 -16 29 3 48 17 18
32 20 52 7z m322 -6 c26 -32 -13 -81 -47 -59 -23 14 -28 41 -13 59 16 19 44
19 60 0z m314 2 c21 -16 18 -45 -6 -61 -35 -22 -74 27 -48 59 15 18 31 19 54
2z m320 -3 c9 -8 16 -11 16 -5 0 19 41 23 61 5 10 -9 19 -12 19 -6 0 16 39 25
54 13 10 -9 21 -8 40 0 20 9 29 9 40 0 11 -10 19 -9 35 1 27 17 56 0 56 -32 0
-30 -29 -49 -52 -34 -12 7 -25 8 -45 0 -20 -7 -31 -7 -39 1 -8 8 -19 8 -40 0
-21 -8 -32 -8 -40 0 -9 9 -18 9 -36 0 -18 -8 -29 -8 -43 1 -12 7 -21 8 -25 2
-10 -17 -54 -11 -64 8 -7 14 -6 25 5 40 18 26 37 28 58 6z m556 1 c15 -18 10
-45 -12 -59 -35 -22 -74 27 -48 59 16 19 44 19 60 0z m234 -1 c20 -19 20 -38
2 -54 -23 -19 -61 -8 -64 18 -7 44 32 67 62 36z m160 0 c19 -19 20 -25 3 -48
-19 -26 -61 -18 -65 12 -7 44 32 67 62 36z m154 4 c7 -7 12 -22 12 -35 0 -31
-47 -44 -67 -18 -17 24 -16 30 3 49 19 19 36 20 52 4z m160 0 c22 -22 14 -57
-13 -64 -45 -11 -71 29 -39 60 19 19 36 20 52 4z m-2453 -118 c4 -7 12 -7 25
0 29 15 48 12 60 -10 21 -40 -26 -80 -58 -48 -8 8 -15 8 -26 -2 -9 -7 -26 -10
-41 -6 -19 5 -25 13 -25 35 0 16 6 32 13 34 21 9 46 7 52 -3z m233 1 c22 -13
11 -65 -14 -69 -28 -4 -55 23 -47 46 11 30 36 39 61 23z m322 -6 c15 -18 10
-45 -12 -59 -35 -22 -74 27 -48 59 16 19 44 19 60 0z m320 0 c15 -18 10 -45
-12 -59 -35 -22 -74 27 -48 59 16 19 44 19 60 0z m308 6 c8 -5 12 -21 10 -37
-4 -35 -44 -47 -65 -18 -17 23 -16 29 3 48 17 18 32 20 52 7z m322 -6 c26 -32
-13 -81 -47 -59 -23 14 -28 41 -13 59 16 19 44 19 60 0z m240 0 c26 -32 -13
-81 -47 -59 -23 14 -28 41 -13 59 16 19 44 19 60 0z m242 -10 c8 -19 8 -28 -2
-40 -23 -28 -70 -12 -70 25 0 42 54 54 72 15z m227 16 c9 -6 22 -6 33 0 31 16
58 2 58 -31 0 -32 -28 -48 -57 -31 -11 6 -24 6 -36 0 -30 -16 -57 -1 -57 31 0
36 28 50 59 31z m245 -13 c22 -35 -27 -74 -59 -48 -20 17 -19 47 3 59 23 14
42 10 56 -11z m-2374 -118 c22 -40 -26 -80 -58 -48 -13 13 -16 50 -5 61 14 14
53 6 63 -13z m236 9 c4 -8 9 -8 17 0 14 14 54 14 59 0 3 -8 10 -8 26 2 28 18
57 2 57 -31 0 -32 -29 -49 -55 -32 -16 10 -24 10 -40 0 -16 -10 -24 -10 -41 0
-15 10 -24 10 -34 2 -17 -14 -51 -5 -59 16 -14 37 49 76 70 43z m554 -4 c26
-32 -13 -81 -47 -59 -23 14 -28 41 -13 59 16 19 44 19 60 0z m318 -22 c3 -25
-1 -33 -19 -38 -17 -6 -27 -2 -41 15 -24 30 -8 62 30 58 22 -2 28 -9 30 -35z
m316 15 c14 -23 -3 -52 -32 -56 -29 -4 -51 40 -32 63 16 20 49 16 64 -7z m153
11 c8 -8 17 -7 32 3 17 10 25 10 41 0 16 -10 24 -10 40 0 26 17 55 0 55 -32 0
-32 -29 -49 -55 -32 -16 10 -24 10 -40 0 -16 -10 -24 -10 -40 0 -16 10 -24 10
-40 0 -37 -23 -77 24 -50 57 15 18 42 19 57 4z m323 -9 c22 -40 -26 -80 -58
-48 -25 25 -6 68 30 68 9 0 22 -9 28 -20z m304 14 c20 -8 21 -48 1 -64 -17
-14 -51 -5 -59 16 -3 9 -1 24 4 35 11 20 27 23 54 13z m243 -5 c8 -8 17 -7 32
3 17 10 25 10 41 0 16 -10 24 -10 40 0 26 17 55 0 55 -32 0 -32 -29 -49 -55
-32 -16 10 -24 10 -40 0 -16 -10 -24 -10 -40 0 -16 10 -24 10 -40 0 -37 -23
-77 24 -50 57 15 18 42 19 57 4z"/>
</g>
</svg>
